<?xml version="1.0" encoding="UTF-8" standalone="no"?>
<!-- Created with Inkscape (http://www.inkscape.org/) -->

<svg
   width="92.491058mm"
   height="93.848511mm"
   viewBox="0 0 92.491058 93.848511"
   version="1.1"
   id="svg1395"
   inkscape:version="1.1.1 (3bf5ae0d25, 2021-09-20)"
   sodipodi:docname="bus.svg"
   xmlns:inkscape="http://www.inkscape.org/namespaces/inkscape"
   xmlns:sodipodi="http://sodipodi.sourceforge.net/DTD/sodipodi-0.dtd"
   xmlns="http://www.w3.org/2000/svg"
   xmlns:svg="http://www.w3.org/2000/svg">
  <sodipodi:namedview
     id="namedview1397"
     pagecolor="#ffffff"
     bordercolor="#666666"
     borderopacity="1.0"
     inkscape:pageshadow="2"
     inkscape:pageopacity="0.0"
     inkscape:pagecheckerboard="0"
     inkscape:document-units="mm"
     showgrid="false"
     fit-margin-top="0"
     fit-margin-left="0"
     fit-margin-right="0"
     fit-margin-bottom="0"
     inkscape:zoom="0.64052329"
     inkscape:cx="185.00498"
     inkscape:cy="239.6478"
     inkscape:window-width="1920"
     inkscape:window-height="1137"
     inkscape:window-x="-8"
     inkscape:window-y="-8"
     inkscape:window-maximized="1"
     inkscape:current-layer="layer1" />
  <defs
     id="defs1392" />
  <g
     inkscape:label="Laag 1"
     inkscape:groupmode="layer"
     id="layer1"
     transform="translate(-51.446405,-85.052778)">
    <path
       d="m 69.670644,178.65206 c -1.037858,-0.55501 -1.096547,-0.76976 -1.131735,-4.14105 -0.0311,-2.97974 -0.0311,-2.97974 -2.22088,-3.01782 -3.221123,-0.056 -4.375571,-0.70333 -5.090994,-2.85448 -0.21859,-0.65727 -0.21859,-0.65727 -0.21859,-31.8672 0,-31.20992 0,-31.20992 -0.290828,-31.48878 -0.509912,-0.48892 -0.804461,-0.44194 -1.548663,0.24701 -2.045437,1.89359 -2.284625,2.91649 -2.28603,9.77623 -0.0012,5.05218 -0.0012,5.05218 -0.249997,5.59376 -0.929592,2.02212 -3.705135,2.09666 -4.781767,0.12841 -0.626501,-1.14534 -0.494699,-10.67837 0.181804,-13.14991 0.703789,-2.57122 2.852137,-5.52034 5.379776,-7.38503 2.672768,-1.971763 3.595705,-3.415192 3.595705,-5.623503 0,-5.254651 2.723709,-8.927187 7.192187,-9.697661 1.310634,-0.225985 58.174938,-0.101415 58.958268,0.129157 3.81918,1.124174 6.2422,4.30592 6.46565,8.490253 0.12188,2.282521 1.64498,4.655513 4.23723,6.601644 3.3646,2.52596 5.29926,5.56459 5.85196,9.19122 0.23485,1.54104 0.31212,10.06663 0.0983,10.8464 -0.65443,2.3867 -3.84201,2.74997 -5.00322,0.57019 -0.22301,-0.41863 -0.22964,-0.55563 -0.28767,-5.94538 -0.0707,-6.56349 -0.12907,-6.89753 -1.51943,-8.6919 -1.38979,-1.79363 -2.12017,-1.80779 -2.93054,-0.0568 -0.35541,0.76796 -0.35541,0.76796 -0.40828,31.3518 -0.0529,30.58386 -0.0529,30.58386 -0.27944,31.14295 -0.8029,1.98145 -1.93093,2.61748 -4.76284,2.68547 -1.8167,0.0437 -1.8167,0.0437 -1.85073,2.89873 -0.0531,4.4549 -0.11424,4.51698 -4.44594,4.51317 -4.31002,-0.004 -4.41714,-0.11736 -4.41813,-4.68432 l -5.8e-4,-2.70487 H 97.599884 77.294708 v 2.74601 c 0,4.56923 -0.0729,4.64553 -4.438046,4.64553 -2.643394,0 -2.733255,-0.007 -3.186206,-0.24925 z m 43.573816,-10.86501 c 1.18402,-0.61156 1.27766,-4.89464 0.12407,-5.67526 -0.45739,-0.3095 -30.96239,-0.39511 -31.685848,-0.0889 -0.729606,0.3088 -0.80198,0.58853 -0.768674,2.97077 0.03274,2.34074 0.07215,2.46816 0.875512,2.82984 0.555921,0.25027 30.96804,0.21507 31.45494,-0.0364 z m -34.036118,-9.09168 c 1.267646,-0.74992 1.174693,-3.33403 -0.167472,-4.6554 -0.314976,-0.31009 -0.543783,-0.61118 -0.508454,-0.66908 0.03533,-0.0579 0.01846,-0.0766 -0.03744,-0.0416 -0.05596,0.035 -0.432113,-0.20546 -0.835951,-0.53438 -2.863318,-2.33212 -6.82755,-4.22603 -10.040791,-4.79698 -1.703826,-0.30275 -3.58429,0.15677 -3.947697,0.96469 -0.164357,0.36538 -0.170311,5.82038 -0.007,6.42502 0.346472,1.28286 3.054498,2.68864 6.176719,3.20642 2.557723,0.42417 8.709895,0.49071 9.368115,0.10131 z m 43.297288,0.16348 c 4.29299,-0.28139 7.8246,-1.54703 8.63514,-3.09461 0.33372,-0.63716 0.2959,-6.72471 -0.0438,-7.04794 -2.26061,-2.1512 -9.50445,0.26159 -14.78029,4.92304 -1.87864,1.65987 -2.03132,4.55365 -0.27256,5.1661 0.49608,0.17276 4.17663,0.20317 6.46148,0.0534 z m -14.80585,-15.02842 c 3.72261,-0.38962 7.50604,-0.82958 8.40761,-0.97769 4.36511,-0.71712 9.42266,-1.94247 11.07794,-2.68398 0.31789,-0.14241 0.63235,-0.22745 0.6988,-0.18898 0.0665,0.0385 0.0867,0.0317 0.045,-0.0151 -0.0417,-0.0468 0.24385,-0.31789 0.63454,-0.60249 0.9758,-0.71085 0.98353,-0.71808 1.47507,-1.38218 0.5388,-0.72791 1.04319,-1.79198 1.19001,-2.51044 0.36973,-1.80921 0.0573,-32.14974 -0.33941,-32.96282 -0.94882,-1.94459 -3.25167,-3.075864 -7.90782,-3.884736 -5.78757,-1.005423 -44.462008,-1.014146 -51.007465,-0.0115 -4.474245,0.685368 -7.54302,2.003286 -8.229633,3.534306 -0.226526,0.5051 -0.311932,32.73271 -0.0899,33.91866 0.371114,1.98217 1.936695,3.52019 4.492449,4.41336 4.233629,1.47954 9.350992,2.39473 18.665948,3.33825 3.751698,0.38001 7.011633,0.71154 7.244301,0.73672 2.166189,0.23449 6.90249,-0.0159 13.64254,-0.72138 z m 5.531,-49.60031 c 0.77766,-0.409852 0.81133,-0.518446 0.84404,-2.72341 0.0327,-2.208753 -0.0308,-2.499926 -0.64552,-2.956715 -0.33802,-0.25118 -30.573442,-0.41588 -31.469698,-0.171424 -1.379451,0.376252 -1.639053,5.158605 -0.315863,5.818884 0.50177,0.250387 31.113871,0.282044 31.587041,0.03266 z"
       style="fill:#000000;stroke-width:0.106437"
       id="path1390" />
  </g>
</svg>
