<?xml version="1.0" encoding="UTF-8" standalone="no"?>
<!-- Created with Inkscape (http://www.inkscape.org/) -->

<svg
   width="56.753971mm"
   height="63.386288mm"
   viewBox="0 0 56.753971 63.386288"
   version="1.1"
   id="svg811"
   inkscape:version="1.1.1 (3bf5ae0d25, 2021-09-20)"
   sodipodi:docname="people.svg"
   xmlns:inkscape="http://www.inkscape.org/namespaces/inkscape"
   xmlns:sodipodi="http://sodipodi.sourceforge.net/DTD/sodipodi-0.dtd"
   xmlns="http://www.w3.org/2000/svg"
   xmlns:svg="http://www.w3.org/2000/svg">
  <sodipodi:namedview
     id="namedview813"
     pagecolor="#ffffff"
     bordercolor="#666666"
     borderopacity="1.0"
     inkscape:pageshadow="2"
     inkscape:pageopacity="0.0"
     inkscape:pagecheckerboard="0"
     inkscape:document-units="mm"
     showgrid="false"
     lock-margins="false"
     fit-margin-top="0"
     fit-margin-left="0"
     fit-margin-right="0"
     fit-margin-bottom="0"
     inkscape:zoom="0.64052329"
     inkscape:cx="-230.28046"
     inkscape:cy="403.57627"
     inkscape:window-width="1920"
     inkscape:window-height="1137"
     inkscape:window-x="-8"
     inkscape:window-y="-8"
     inkscape:window-maximized="1"
     inkscape:current-layer="layer1" />
  <defs
     id="defs808" />
  <g
     inkscape:label="Laag 1"
     inkscape:groupmode="layer"
     id="layer1"
     transform="translate(-39.780177,-41.833977)">
    <g
       id="g580"
       transform="matrix(0.26458333,0,0,0.26458333,34.135733,36.911892)">
      <path
         style="fill:#fafafa;stroke-width:1.33333"
         d="m 92.522292,230.66666 c 0,-9.9 0.209898,-13.95 0.466439,-9 0.256543,4.95 0.256543,13.05 0,18 -0.256541,4.95 -0.466439,0.9 -0.466439,-9 z m 91.811038,-71.58577 c 1.28333,-0.33536 3.38333,-0.33536 4.66667,0 1.28333,0.33537 0.23333,0.60977 -2.33334,0.60977 -2.56666,0 -3.61666,-0.2744 -2.33333,-0.60977 z M 225.90991,120 c 0,-17.96667 0.18874,-25.316669 0.41942,-16.33334 0.23068,8.98334 0.23068,23.68334 0,32.66667 -0.23068,8.98333 -0.41942,1.63333 -0.41942,-16.33333 z m -186.669824,0 c 0,-17.23334 0.190022,-24.283336 0.42227,-15.66667 0.232248,8.61667 0.232248,22.71667 0,31.33333 -0.232248,8.61667 -0.42227,1.56667 -0.42227,-15.66666 z m 53.367973,4.33512 0.05861,-18.33512 4,-0.12431 c 3.696501,-0.11488 3.724611,-0.0834 0.370428,0.41505 l -3.629573,0.53935 -0.429033,17.92007 -0.429034,17.92008 0.0586,-18.33512 z M 60.333332,105.74756 c 1.283333,-0.33537 3.383333,-0.33537 4.666666,0 1.283334,0.33537 0.233334,0.60977 -2.333333,0.60977 -2.566667,0 -3.616666,-0.2744 -2.333333,-0.60977 z m 97.333328,0 c 1.28334,-0.33537 3.38334,-0.33537 4.66667,0 1.28333,0.33537 0.23333,0.60977 -2.33333,0.60977 -2.56667,0 -3.61667,-0.2744 -2.33334,-0.60977 z m 53.33333,0 c 1.28334,-0.33537 3.38334,-0.33537 4.66667,0 1.28333,0.33537 0.23333,0.60977 -2.33333,0.60977 -2.56667,0 -3.61667,-0.2744 -2.33334,-0.60977 z"
         id="path596" />
      <path
         style="fill:#ababab;stroke-width:1.33333"
         d="m 72.999998,257.68367 c 3.85,-0.26933 10.15,-0.26933 14,0 3.85,0.26934 0.7,0.48971 -7,0.48971 -7.7,0 -10.85,-0.22037 -7,-0.48971 z M 175,257.67434 c 6.41666,-0.24441 16.91666,-0.24441 23.33333,0 6.41666,0.24443 1.16667,0.4444 -11.66667,0.4444 -12.83333,0 -18.08333,-0.19997 -11.66666,-0.4444 z m 42.92517,-48.34101 c 0,-22.36667 0.18245,-31.51667 0.40546,-20.33333 0.22302,11.18333 0.22302,29.48333 0,40.66666 -0.22301,11.18333 -0.40546,2.03333 -0.40546,-20.33333 z M 84.522293,230.66666 c 0,-9.9 0.209897,-13.95 0.466438,-9 0.256543,4.95 0.256543,13.05 0,18 -0.256541,4.95 -0.466438,0.9 -0.466438,-9 z m 80.098927,-53.33333 c 0,-39.23333 0.17003,-55.28333 0.37783,-35.66667 0.20781,19.61667 0.20781,51.71667 0,71.33333 -0.2078,19.61667 -0.37783,3.56667 -0.37783,-35.66666 z m 26.64311,26.66666 c 0,-24.56666 0.18003,-34.61666 0.40007,-22.33333 0.22004,12.28334 0.22004,32.38333 0,44.66667 -0.22004,12.28333 -0.40007,2.23333 -0.40007,-22.33334 z m 26.62925,-71.33333 c -10e-4,-14.66666 0.19363,-20.84858 0.43289,-13.73759 0.23927,7.11099 0.24024,19.11099 0.003,26.66667 -0.23809,7.55567 -0.43387,1.73759 -0.43504,-12.92908 z"
         id="path594" />
      <path
         style="fill:#a6a6a6;stroke-width:1.33333"
         d="m 70.628533,248.58502 3.961868,-0.74829 0.431833,-17.2536 0.431832,-17.2536 -0.06036,17.66856 -0.06037,17.66857 -4.333333,0.33333 c -4.20171,0.32322 -4.212994,0.3106 -0.371465,-0.41497 z m 16.371465,-0.1708 c 1.283333,-0.33536 3.383333,-0.33536 4.666666,0 1.283334,0.33537 0.233334,0.60977 -2.333333,0.60977 -2.566667,0 -3.616666,-0.2744 -2.333333,-0.60977 z M 155.2585,209.33333 c 0,-22.36667 0.18246,-31.51667 0.40547,-20.33333 0.22301,11.18333 0.22301,29.48333 0,40.66666 -0.22301,11.18333 -0.40547,2.03333 -0.40547,-20.33333 z m 17.7236,39.04932 8.31544,-0.50898 0.37819,-43.6035 0.37819,-43.60351 -0.0269,44 -0.0269,44 -8.66667,0.11253 -8.66666,0.11254 8.31544,-0.50898 z m 26.67291,-1.6e-4 8.32168,-0.50914 0.36285,-70.93667 0.36284,-70.93668 -0.0179,71.33333 -0.0179,71.33333 -8.66667,0.11253 -8.66666,0.11254 8.32168,-0.50914 z M 155.22905,133.33333 c 0,-15.03333 0.19445,-21.18333 0.43212,-13.66667 0.23767,7.51667 0.23767,19.81667 0,27.33334 -0.23767,7.51666 -0.43212,1.36666 -0.43212,-13.66667 z"
         id="path592" />
      <path
         style="fill:#565656;stroke-width:1.33333"
         d="m 101.85941,231.33333 c 0.002,-10.26667 0.21138,-14.29042 0.46511,-8.94167 0.25373,5.34875 0.25203,13.74875 -0.004,18.66667 -0.25586,4.91792 -0.46345,0.54166 -0.46137,-9.725 z M 48.576591,120 c 0,-17.96667 0.188733,-25.316669 0.419409,-16.33334 0.230675,8.98334 0.230675,23.68334 0,32.66667 -0.230676,8.98333 -0.419409,1.63333 -0.419409,-16.33333 z m 186.663499,0 c 0,-17.23334 0.19001,-24.283336 0.42226,-15.66667 0.23224,8.61667 0.23224,22.71667 0,31.33333 -0.23225,8.61667 -0.42226,1.56667 -0.42226,-15.66666 z m -133.38446,4 c 0,-9.9 0.20989,-13.95 0.46643,-9 0.25655,4.95 0.25655,13.05 0,18 -0.25654,4.95 -0.46643,0.9 -0.46643,-9 z"
         id="path590" />
      <path
         style="fill:#525252;stroke-width:1.33333"
         d="m 57.859408,231.33333 c 0.0021,-10.26667 0.21138,-14.29042 0.465111,-8.94167 0.253729,5.34875 0.252028,13.74875 -0.0037,18.66667 -0.25586,4.91792 -0.463457,0.54166 -0.461377,-9.725 z m -0.859409,-26.99786 c 12.649999,-0.21914 33.349999,-0.21914 46.000001,0 12.65,0.21915 2.3,0.39844 -23.000002,0.39844 -25.299999,0 -35.649999,-0.17929 -22.999999,-0.39844 z M 111.24326,120 c 0,-17.96667 0.18873,-25.316669 0.41941,-16.33334 0.23067,8.98334 0.23067,23.68334 0,32.66667 -0.23068,8.98333 -0.41941,1.63333 -0.41941,-16.33333 z m 26.6635,0 c 0,-17.23334 0.19001,-24.283336 0.42226,-15.66667 0.23224,8.61667 0.23224,22.71667 0,31.33333 -0.23225,8.61667 -0.42226,1.56667 -0.42226,-15.66666 z m -80.051133,4 c 0,-9.9 0.209897,-13.95 0.466438,-9 0.256543,4.95 0.256543,13.05 0,18 -0.256541,4.95 -0.466438,0.9 -0.466438,-9 z M 157.66666,71.080897 c 1.28334,-0.335369 3.38334,-0.335369 4.66667,0 1.28333,0.335371 0.23333,0.609764 -2.33333,0.609764 -2.56667,0 -3.61667,-0.274393 -2.33334,-0.609764 z m 53.33333,0 c 1.28334,-0.335369 3.38334,-0.335369 4.66667,0 1.28333,0.335371 0.23333,0.609764 -2.33333,0.609764 -2.56667,0 -3.61667,-0.274393 -2.33334,-0.609764 z"
         id="path588" />
      <path
         style="fill:#050505;stroke-width:1.33333"
         d="m 44.75239,163.0575 c -0.72358,-1.90026 -0.570428,-2.05341 0.746393,-0.7464 0.911224,0.90446 1.320894,1.98032 0.910379,2.39084 -0.410516,0.41052 -1.156064,-0.32948 -1.656772,-1.64444 z"
         id="path586" />
      <path
         style="fill:#020202;stroke-width:1.33333"
         d="m 65.941393,231.00178 0.05861,-18.33512 5.011539,-0.13979 5.011537,-0.1398 -4.641088,0.5514 -4.641088,0.5514 -0.429056,17.92352 -0.429056,17.92351 0.05861,-18.33512 z M 28.999999,212.34331 c 5.316667,-0.25308 14.016667,-0.25308 19.333333,0 5.316667,0.2531 0.966667,0.46016 -9.666666,0.46016 -10.633333,0 -14.983333,-0.20706 -9.666667,-0.46016 z m 57.348878,0.0471 c 1.65855,-0.31892 4.05855,-0.30681 5.333333,0.0269 1.274784,0.33372 -0.08221,0.59467 -3.015546,0.57987 -2.933333,-0.0148 -3.976337,-0.28785 -2.317787,-0.60677 z m 25.317783,-0.0471 c 5.31667,-0.25308 14.01667,-0.25308 19.33334,0 5.31666,0.2531 0.96666,0.46016 -9.66667,0.46016 -10.63333,0 -14.98333,-0.20706 -9.66667,-0.46016 z M 145.90992,120 c 0,-17.96667 0.18873,-25.316669 0.41941,-16.33334 0.23068,8.98334 0.23068,23.68334 0,32.66667 -0.23068,8.98333 -0.41941,1.63333 -0.41941,-16.33333 z m -26.66984,0 c 0,-17.23334 0.19003,-24.283336 0.42227,-15.66667 0.23225,8.61667 0.23225,22.71667 0,31.33333 -0.23224,8.61667 -0.42227,1.56667 -0.42227,-15.66666 z m -53.380672,4.66666 c 0.0021,-10.26666 0.21138,-14.29041 0.46511,-8.94166 0.25373,5.34875 0.252028,13.74875 -0.0037,18.66666 -0.25586,4.91792 -0.463457,0.54167 -0.461377,-9.725 z m 2.473924,-45.659419 c 6.416666,-0.244419 16.916666,-0.244419 23.333332,0 6.416667,0.244418 1.166667,0.444397 -11.666666,0.444397 -12.833333,0 -18.083333,-0.199979 -11.666666,-0.444397 z m 102.076468,-0.0039 c 9.02538,-0.231012 23.42538,-0.230299 31.99999,0.0016 8.57462,0.231885 1.1902,0.420896 -16.40979,0.420024 -17.6,-8.72e-4 -24.61559,-0.190596 -15.5902,-0.421609 z"
         id="path584" />
      <path
         style="fill:#000000;stroke-width:1.33333"
         d="m 61.921505,255.44451 c -2.311252,-1.6867 -2.659502,-4.07625 -3.25484,-22.33333 L 57.999999,212.66666 39.666666,212.2957 c -10.083333,-0.20403 -18.333333,-0.54283 -18.333333,-0.75287 0,-0.21005 5.687629,-11.03416 12.639175,-24.05354 l 12.639178,-23.67164 -2.972511,-4.01704 c -2.852083,-3.85429 -2.989449,-5.33107 -3.390656,-36.45138 -0.262283,-20.34439 0.1174,-34.423202 1.018596,-37.769985 1.693385,-6.288755 9.270233,-13.579247 14.112612,-13.579247 4.07036,0 4.076572,-0.467318 0.07651,-5.755629 -17.21553,-22.759913 6.733625,-55.1932 34.011467,-46.060232 19.120156,6.401673 26.599416,28.8895 15.196816,45.692164 -4.11797,6.068181 -4.11653,6.123697 0.15901,6.123697 2.27649,0 5.2903,1.800103 8.66666,5.176471 l 5.17647,5.17647 v 37.310381 c 0,35.26228 -0.14604,37.49605 -2.66042,40.69257 l -2.66042,3.38217 12.66042,23.71143 c 6.96323,13.04128 12.66042,23.88329 12.66042,24.09334 0,0.21004 -8.25,0.54884 -18.33333,0.75287 L 102,212.66666 l -0.66667,20.44452 c -0.59534,18.25708 -0.94359,20.64663 -3.254839,22.33333 -3.660943,2.67171 -32.496043,2.67171 -36.156986,0 z m 14.078493,-24.85834 v -18.74715 l -5,0.41381 -5,0.41383 -0.37096,18.33333 -0.370958,18.33334 h 5.370958 5.37096 z m 17.333333,0.0805 V 212 h -4.666667 -4.666666 v 18.66667 18.66667 h 4.666666 4.666667 z m 33.333329,-25.9554 c 0,-0.34213 -7.5,-14.65601 -16.66666,-31.80861 L 93.333331,141.7161 v -17.52471 -17.52473 h 4 3.999999 v 17.50437 c 0,17.16825 0.0801,17.64442 4.17323,24.79841 3.02956,5.29512 4.48555,6.80118 5.31291,5.49562 0.62683,-0.98912 1.14888,-16.88193 1.16011,-35.31735 0.0189,-31.033332 -0.1686,-33.752376 -2.52845,-36.666667 -2.52629,-3.119837 -2.78709,-3.147712 -29.451132,-3.147712 -26.664043,0 -26.924846,0.02787 -29.451137,3.147712 -2.362568,2.917648 -2.548862,5.664923 -2.548862,37.587977 0,19.54804 0.530901,34.76838 1.227781,35.19907 0.67528,0.41735 3.07528,-2.47028 5.333333,-6.41695 4.012304,-7.01277 4.105552,-7.57332 4.105552,-24.68011 v -17.50437 h 3.333333 3.333334 v 18.80018 18.80017 l -16,29.89691 c -8.8,16.44329 -16,30.18321 -16,30.53315 0,0.34994 21,0.63626 46.666666,0.63626 25.666662,0 46.666662,-0.27994 46.666662,-0.62207 z M 92.745127,67.951506 C 99.094334,64.02748 103.15997,54.936365 102.34742,46.479962 101.18491,34.381468 92.48338,26.666666 79.999998,26.666666 c -12.809877,0 -21.321223,7.793793 -22.373898,20.487651 -0.927209,11.180934 5.043896,20.234009 15.591994,23.639761 5.071313,1.637418 14.498798,0.265048 19.527033,-2.842572 z M 159.27273,254.06059 156,250.78787 V 209.39393 C 156,172.89866 155.75548,168 153.93378,168 c -3.84797,0 -10.03904,-4.10868 -12.65442,-8.39807 -2.40855,-3.95013 -2.60272,-6.90469 -2.60272,-39.60193 0,-32.697246 0.19417,-35.651799 2.60272,-39.601937 3.44882,-5.656277 9.1038,-8.398065 17.32109,-8.398065 3.70308,0 6.73288,-0.340033 6.73288,-0.755629 0,-0.415596 -1.44469,-2.665596 -3.21043,-5 -17.21553,-22.759913 6.73362,-55.1932 34.01147,-46.060232 19.12016,6.401673 26.59941,28.8895 15.19682,45.692164 -1.83216,2.699833 -3.3312,5.182143 -3.3312,5.516243 0,0.3341 3.0298,0.607454 6.73288,0.607454 8.2173,0 13.87227,2.741788 17.3211,8.398065 2.40854,3.950138 2.60272,6.904691 2.60272,39.601937 0,32.69724 -0.19418,35.6518 -2.60272,39.60193 -2.61539,4.28939 -8.80646,8.39807 -12.65443,8.39807 -1.82169,0 -2.06621,4.89866 -2.06621,41.39393 v 41.39394 l -3.27274,3.27272 c -3.23353,3.23355 -3.56153,3.27274 -27.39393,3.27274 -23.8324,0 -24.1604,-0.0392 -27.39393,-3.27274 z m 23.39393,-49.39393 V 160 h 4 4 v 44.66666 44.66667 h 9.33333 9.33334 V 178 106.66666 h 4 4 v 26.66667 c 0,24.02931 0.22038,26.66667 2.22834,26.66667 1.22559,0 3.32559,-0.99299 4.66667,-2.20666 2.24619,-2.03276 2.43832,-5.01085 2.43832,-37.79334 0,-34.48143 -0.0872,-35.66559 -2.80581,-38.126685 -2.60698,-2.35998 -5.25003,-2.539984 -37.29535,-2.539984 -34.11348,0 -34.52265,0.03312 -37.52752,3.037038 C 146.0328,85.374621 146,85.779721 146,119.89705 c 0,32.04515 0.18002,34.68857 2.53998,37.29629 1.39699,1.54367 3.64699,2.80666 5,2.80666 C 155.84912,160 156,158.36441 156,133.33333 v -26.66667 h 4 4 V 178 249.33333 h 9.33333 9.33333 z M 199.4118,67.951506 c 6.34919,-3.924026 10.41483,-13.015141 9.60229,-21.471544 -1.16252,-12.098494 -9.86404,-19.813296 -22.34743,-19.813296 -12.80988,0 -21.32122,7.793793 -22.37389,20.487651 -0.92721,11.180934 5.04389,20.234009 15.59199,23.639761 5.07132,1.637418 14.4988,0.265048 19.52704,-2.842572 z"
         id="path582" />
    </g>
  </g>
</svg>
